<svg width="77" height="58" viewBox="0 0 77 58" fill="none" xmlns="http://www.w3.org/2000/svg">
<path d="M24.5548 53.092C18.6179 53.092 13.7215 50.9167 10.266 47.0047C6.77442 43.0518 4.45278 36.9738 4.45278 28.7H-3.54722C-3.54722 38.4442 -0.798859 46.5622 4.27009 52.3008C9.37511 58.0803 16.5296 61.092 24.5548 61.092V53.092ZM4.45278 28.7C4.45278 20.4262 6.77442 14.3482 10.266 10.3953C13.7215 6.48331 18.6179 4.308 24.5548 4.308V-3.692C16.5296 -3.692 9.37511 -0.680319 4.27009 5.09916C-0.798859 10.8378 -3.54722 18.9558 -3.54722 28.7H4.45278ZM24.5548 4.308C30.4462 4.308 35.3236 6.47865 38.7723 10.3919C42.2571 14.3461 44.5788 20.4263 44.5788 28.7H52.5788C52.5788 18.9557 49.8305 10.8399 44.7742 5.10256C39.6819 -0.675659 32.5474 -3.692 24.5548 -3.692V4.308ZM44.5788 28.7C44.5788 36.9737 42.2571 43.0539 38.7723 47.0081C35.3236 50.9213 30.4462 53.092 24.5548 53.092V61.092C32.5474 61.092 39.6819 58.0757 44.7742 52.2974C49.8305 46.5601 52.5788 38.4443 52.5788 28.7H44.5788ZM24.5548 48.456C28.4189 48.456 31.8414 46.6451 34.0738 42.9436C36.1339 39.5278 37.0568 34.7315 37.0568 28.7H29.0568C29.0568 34.1345 28.1857 37.2162 27.2233 38.8119C26.4332 40.1219 25.6046 40.456 24.5548 40.456V48.456ZM37.0568 28.7C37.0568 22.6685 36.1339 17.8722 34.0738 14.4564C31.8414 10.7549 28.4189 8.944 24.5548 8.944V16.944C25.6046 16.944 26.4332 17.2781 27.2233 18.5881C28.1857 20.1838 29.0568 23.2655 29.0568 28.7H37.0568ZM24.5548 8.944C20.6748 8.944 17.2268 10.7344 14.9734 14.4467C12.897 17.8675 11.9748 22.6703 11.9748 28.7H19.9748C19.9748 23.2637 20.8466 20.1885 21.8121 18.5978C22.6008 17.2986 23.4428 16.944 24.5548 16.944V8.944ZM11.9748 28.7C11.9748 34.7297 12.897 39.5325 14.9734 42.9533C17.2268 46.6656 20.6748 48.456 24.5548 48.456V40.456C23.4428 40.456 22.6008 40.1014 21.8121 38.8022C20.8466 37.2115 19.9748 34.1363 19.9748 28.7H11.9748ZM51.0559 1.4V-2.6H47.0559V1.4H51.0559ZM76.6399 1.4H80.6399V-2.6H76.6399V1.4ZM76.6399 56V60H80.6399V56H76.6399ZM61.1959 56H57.1959V60H61.1959V56ZM61.1959 13.334H65.1959V9.334H61.1959V13.334ZM51.0559 13.334H47.0559V17.334H51.0559V13.334ZM51.0559 5.4H76.6399V-2.6H51.0559V5.4ZM72.6399 1.4V56H80.6399V1.4H72.6399ZM76.6399 52H61.1959V60H76.6399V52ZM65.1959 56V13.334H57.1959V56H65.1959ZM61.1959 9.334H51.0559V17.334H61.1959V9.334ZM55.0559 13.334V1.4H47.0559V13.334H55.0559Z" fill="black"/>
</svg>
