<svg width="96" height="58" viewBox="0 0 96 58" fill="none" xmlns="http://www.w3.org/2000/svg">
<path d="M25.0138 53.092C19.0769 53.092 14.1804 50.9167 10.725 47.0047C7.23341 43.0518 4.91177 36.9738 4.91177 28.7H-3.08823C-3.08823 38.4442 -0.339874 46.5622 4.72907 52.3008C9.83409 58.0803 16.9886 61.092 25.0138 61.092V53.092ZM4.91177 28.7C4.91177 20.4262 7.23341 14.3482 10.725 10.3953C14.1804 6.48331 19.0769 4.308 25.0138 4.308V-3.692C16.9886 -3.692 9.83409 -0.680319 4.72907 5.09916C-0.339874 10.8378 -3.08823 18.9558 -3.08823 28.7H4.91177ZM25.0138 4.308C30.9052 4.308 35.7826 6.47865 39.2313 10.3919C42.7161 14.3461 45.0378 20.4263 45.0378 28.7H53.0378C53.0378 18.9557 50.2895 10.8399 45.2332 5.10256C40.1409 -0.675659 33.0064 -3.692 25.0138 -3.692V4.308ZM45.0378 28.7C45.0378 36.9737 42.7161 43.0539 39.2313 47.0081C35.7826 50.9213 30.9052 53.092 25.0138 53.092V61.092C33.0064 61.092 40.1409 58.0757 45.2332 52.2974C50.2895 46.5601 53.0378 38.4443 53.0378 28.7H45.0378ZM25.0138 48.456C28.8779 48.456 32.3003 46.6451 34.5328 42.9436C36.5929 39.5278 37.5158 34.7315 37.5158 28.7H29.5158C29.5158 34.1345 28.6447 37.2162 27.6823 38.8119C26.8922 40.1219 26.0636 40.456 25.0138 40.456V48.456ZM37.5158 28.7C37.5158 22.6685 36.5929 17.8722 34.5328 14.4564C32.3003 10.7549 28.8779 8.944 25.0138 8.944V16.944C26.0636 16.944 26.8922 17.2781 27.6823 18.5881C28.6447 20.1838 29.5158 23.2655 29.5158 28.7H37.5158ZM25.0138 8.944C21.1338 8.944 17.6858 10.7344 15.4324 14.4467C13.3559 17.8675 12.4338 22.6703 12.4338 28.7H20.4338C20.4338 23.2637 21.3056 20.1885 22.2711 18.5978C23.0598 17.2986 23.9018 16.944 25.0138 16.944V8.944ZM12.4338 28.7C12.4338 34.7297 13.3559 39.5325 15.4324 42.9533C17.6858 46.6656 21.1338 48.456 25.0138 48.456V40.456C23.9018 40.456 23.0598 40.1014 22.2711 38.8022C21.3056 37.2115 20.4338 34.1363 20.4338 28.7H12.4338ZM74.8369 43.754L72.1219 40.8165L64.6158 47.754H74.8369V43.754ZM95.8969 43.754H99.8969V39.754H95.8969V43.754ZM95.8969 56V60H99.8969V56H95.8969ZM53.3869 56H49.3869V60H53.3869V56ZM53.3869 46.328L50.6548 43.4064L49.3869 44.5921V46.328H53.3869ZM73.8229 27.218L71.1011 24.2868L71.0908 24.2964L73.8229 27.218ZM62.0449 18.092L60.0963 21.5853L63.4265 23.4429L65.4411 20.2052L62.0449 18.092ZM50.5789 11.696L47.1523 9.63229L45.0188 13.1747L48.6302 15.1893L50.5789 11.696ZM85.1329 34.238L82.4246 31.2943L82.4179 31.3005L85.1329 34.238ZM74.8369 47.754H95.8969V39.754H74.8369V47.754ZM91.8969 43.754V56H99.8969V43.754H91.8969ZM95.8969 52H53.3869V60H95.8969V52ZM57.3869 56V46.328H49.3869V56H57.3869ZM56.1189 49.2496L76.5549 30.1396L71.0908 24.2964L50.6548 43.4064L56.1189 49.2496ZM76.5447 30.1492C78.9362 27.9285 80.5486 25.9128 81.5395 23.9172C82.5788 21.8243 82.8149 19.9938 82.8149 18.404H74.8149C74.8149 19.0762 74.739 19.6247 74.3742 20.3593C73.9612 21.1912 73.0775 22.4515 71.1011 24.2868L76.5447 30.1492ZM82.8149 18.404C82.8149 15.7013 81.871 13.0633 79.6054 11.1943C77.4608 9.42492 74.6628 8.788 71.7949 8.788V16.788C73.607 16.788 74.319 17.2041 74.5143 17.3652C74.5888 17.4267 74.8149 17.5967 74.8149 18.404H82.8149ZM71.7949 8.788C66.5468 8.788 61.62 11.2034 58.6487 15.9788L65.4411 20.2052C66.8378 17.9606 69.087 16.788 71.7949 16.788V8.788ZM63.9935 14.5987L52.5275 8.20274L48.6302 15.1893L60.0963 21.5853L63.9935 14.5987ZM54.0054 13.7597C57.3194 8.25726 63.6401 4.308 73.1989 4.308V-3.692C61.2296 -3.692 52.1064 1.40674 47.1523 9.63229L54.0054 13.7597ZM73.1989 4.308C78.8333 4.308 83.2056 5.7636 86.0701 7.97746C88.8425 10.1201 90.4149 13.1136 90.4149 16.922H98.4149C98.4149 10.5904 95.6582 5.2769 90.9622 1.64754C86.3582 -1.91061 80.1224 -3.692 73.1989 -3.692V4.308ZM90.4149 16.922C90.4149 19.1422 90.1152 21.0429 89.1011 23.1298C88.0497 25.2935 86.108 27.9056 82.4247 31.2943L87.8411 37.1817C91.9578 33.3944 94.657 30.0005 96.2966 26.6262C97.9736 23.1751 98.4149 20.0058 98.4149 16.922H90.4149ZM82.4179 31.3005L72.1219 40.8165L77.5518 46.6915L87.8478 37.1755L82.4179 31.3005Z" fill="black"/>
</svg>
