<svg width="96" height="58" viewBox="0 0 96 58" fill="none" xmlns="http://www.w3.org/2000/svg">
<path d="M24.4376 53.092C18.5007 53.092 13.6043 50.9167 10.1488 47.0047C6.65723 43.0518 4.33559 36.9738 4.33559 28.7H-3.66441C-3.66441 38.4442 -0.916046 46.5622 4.1529 52.3008C9.25792 58.0803 16.4124 61.092 24.4376 61.092V53.092ZM4.33559 28.7C4.33559 20.4262 6.65723 14.3482 10.1488 10.3953C13.6043 6.48331 18.5007 4.308 24.4376 4.308V-3.692C16.4124 -3.692 9.25792 -0.680319 4.1529 5.09916C-0.916046 10.8378 -3.66441 18.9558 -3.66441 28.7H4.33559ZM24.4376 4.308C30.329 4.308 35.2064 6.47865 38.6552 10.3919C42.1399 14.3461 44.4616 20.4263 44.4616 28.7H52.4616C52.4616 18.9557 49.7133 10.8399 44.657 5.10256C39.5648 -0.675659 32.4302 -3.692 24.4376 -3.692V4.308ZM44.4616 28.7C44.4616 36.9737 42.1399 43.0539 38.6552 47.0081C35.2064 50.9213 30.329 53.092 24.4376 53.092V61.092C32.4302 61.092 39.5648 58.0757 44.657 52.2974C49.7133 46.5601 52.4616 38.4443 52.4616 28.7H44.4616ZM24.4376 48.456C28.3017 48.456 31.7242 46.6451 33.9566 42.9436C36.0167 39.5278 36.9396 34.7315 36.9396 28.7H28.9396C28.9396 34.1345 28.0685 37.2162 27.1061 38.8119C26.316 40.1219 25.4874 40.456 24.4376 40.456V48.456ZM36.9396 28.7C36.9396 22.6685 36.0167 17.8722 33.9566 14.4564C31.7242 10.7549 28.3017 8.944 24.4376 8.944V16.944C25.4874 16.944 26.316 17.2781 27.1061 18.5881C28.0685 20.1838 28.9396 23.2655 28.9396 28.7H36.9396ZM24.4376 8.944C20.5576 8.944 17.1096 10.7344 14.8562 14.4467C12.7798 17.8675 11.8576 22.6703 11.8576 28.7H19.8576C19.8576 23.2637 20.7294 20.1885 21.695 18.5978C22.4836 17.2986 23.3256 16.944 24.4376 16.944V8.944ZM11.8576 28.7C11.8576 34.7297 12.7798 39.5325 14.8562 42.9533C17.1096 46.6656 20.5576 48.456 24.4376 48.456V40.456C23.3256 40.456 22.4836 40.1014 21.695 38.8022C20.7294 37.2115 19.8576 34.1363 19.8576 28.7H11.8576ZM80.9724 23.24L78.0425 20.5168L73.2346 25.6894L80.1433 27.1531L80.9724 23.24ZM50.0064 51.71L46.4048 49.9697L44.8437 53.2003L47.8864 55.102L50.0064 51.71ZM55.6224 40.088L57.8684 36.7781L54.0359 34.1775L52.0208 38.3477L55.6224 40.088ZM64.5924 33.614H60.5924V37.614H64.5924V33.614ZM64.5924 23.864L61.6573 21.1464L60.5924 22.2965V23.864H64.5924ZM74.3424 13.334L77.2774 16.0516L83.4974 9.334H74.3424V13.334ZM52.8144 13.334H48.8144V17.334H52.8144V13.334ZM52.8144 1.4V-2.6H48.8144V1.4H52.8144ZM92.2824 1.4H96.2824V-2.6H92.2824V1.4ZM92.2824 11.072L95.2122 13.7952L96.2824 12.6439V11.072H92.2824ZM80.1433 27.1531C84.0827 27.9878 86.7547 29.5976 88.4315 31.517C90.0882 33.4132 91.0124 35.8804 91.0124 38.918H99.0124C99.0124 34.1556 97.5186 29.7588 94.4562 26.2535C91.414 22.7714 87.066 20.4422 81.8014 19.3269L80.1433 27.1531ZM91.0124 38.918C91.0124 42.4705 89.6301 45.8882 86.6642 48.4675C83.675 51.0671 78.7439 53.092 71.2224 53.092V61.092C80.1589 61.092 87.1227 58.6709 91.914 54.504C96.7287 50.3168 99.0124 44.6475 99.0124 38.918H91.0124ZM71.2224 53.092C64.1925 53.092 56.9471 51.331 52.1264 48.318L47.8864 55.102C54.2976 59.109 63.1202 61.092 71.2224 61.092V53.092ZM53.6079 53.4503L59.2239 41.8283L52.0208 38.3477L46.4048 49.9697L53.6079 53.4503ZM53.3764 43.3979C58.4652 46.851 64.8788 48.612 70.7544 48.612V40.612C66.334 40.612 61.5155 39.253 57.8684 36.7781L53.3764 43.3979ZM70.7544 48.612C73.8014 48.612 76.8118 48.0338 79.1962 46.5108C81.7636 44.871 83.4124 42.2247 83.4124 38.918H75.4124C75.4124 39.1884 75.3555 39.3102 75.3219 39.3691C75.2826 39.4378 75.178 39.5847 74.89 39.7687C74.2519 40.1762 72.9333 40.612 70.7544 40.612V48.612ZM83.4124 38.918C83.4124 36.1446 82.3001 33.4929 79.7142 31.7316C77.4005 30.1556 74.3631 29.614 71.0664 29.614V37.614C73.6976 37.614 74.8332 38.0864 75.2105 38.3434C75.2892 38.397 75.3238 38.4336 75.3348 38.446C75.3448 38.4573 75.3478 38.4628 75.3509 38.4691C75.3538 38.4751 75.4124 38.5925 75.4124 38.918H83.4124ZM71.0664 29.614H64.5924V37.614H71.0664V29.614ZM68.5924 33.614V23.864H60.5924V33.614H68.5924ZM67.5274 26.5816L77.2774 16.0516L71.4073 10.6164L61.6573 21.1464L67.5274 26.5816ZM74.3424 9.334H52.8144V17.334H74.3424V9.334ZM56.8144 13.334V1.4H48.8144V13.334H56.8144ZM52.8144 5.4H92.2824V-2.6H52.8144V5.4ZM88.2824 1.4V11.072H96.2824V1.4H88.2824ZM89.3525 8.34875L78.0425 20.5168L83.9022 25.9632L95.2122 13.7952L89.3525 8.34875Z" fill="black"/>
</svg>
