<svg width="174" height="56" viewBox="0 0 174 56" fill="none" xmlns="http://www.w3.org/2000/svg">
<g clip-path="url(#clip0_226_340)">
<path d="M25.6879 42.7311L11.8619 40.5645L12.262 16.3435L31.0036 20.539L25.6879 42.7311Z" fill="#F6F1F1"/>
<path d="M62.3964 39.3434H58.7446L58.1222 35.2231H53.6829L53.0605 39.3434H49.739L53.4225 16.6504H58.7129L62.3964 39.3434ZM54.1402 32.1485H57.6268L55.8867 20.6705L54.1465 32.1485H54.1402Z" fill="#27374D"/>
<path d="M74.7935 22.261V25.2104C74.7935 28.8423 73.0152 30.821 69.4015 30.821H67.6931V39.3497H64.0794V16.6504H69.4079C73.0279 16.6504 74.7998 18.6291 74.7998 22.261H74.7935ZM67.6931 19.894V27.5774H69.4015C70.551 27.5774 71.1798 27.0576 71.1798 25.4358V22.0293C71.1798 20.4075 70.5574 19.8878 69.4015 19.8878H67.6931V19.894Z" fill="#27374D"/>
<path d="M87.1905 22.261V25.2104C87.1905 28.8423 85.4123 30.821 81.7986 30.821H80.0902V39.3497H76.4765V16.6504H81.8049C85.425 16.6504 87.1969 18.6291 87.1969 22.261H87.1905ZM80.0902 19.894V27.5774H81.7986C82.9481 27.5774 83.5768 27.0576 83.5768 25.4358V22.0293C83.5768 20.4075 82.9544 19.8878 81.7986 19.8878H80.0902V19.894Z" fill="#27374D"/>
<path d="M96.3613 30.3013L95.2435 32.374V39.3434H91.6299V16.6504H95.2435V26.5379L99.9814 16.6504H103.595L98.5651 26.7633L103.595 39.3434H99.8797L96.3613 30.3013Z" fill="#27374D"/>
<path d="M116.945 39.3434H113.293L112.671 35.2231H108.231L107.609 39.3434H104.287L107.971 16.6504H113.261L116.945 39.3434ZM108.689 32.1485H112.175L110.435 20.6705L108.695 32.1485H108.689Z" fill="#27374D"/>
<path d="M118.621 16.6504H124.344C127.964 16.6504 129.736 18.6291 129.736 22.261V33.7391C129.736 37.371 127.957 39.3497 124.344 39.3497H118.621V16.6504ZM122.235 19.894V36.1061H124.274C125.423 36.1061 126.116 35.5237 126.116 33.9019V22.0982C126.116 20.4764 125.423 19.894 124.274 19.894H122.235Z" fill="#27374D"/>
<path d="M135.655 26.2185H140.621V29.4622H135.655V36.1061H141.904V39.3497H132.041V16.6504H141.904V19.894H135.655V26.2185Z" fill="#27374D"/>
<path d="M151.799 32.7622L154.263 16.6504H159.293V39.3434H155.876V23.0688L153.38 39.3434H149.963L147.264 23.2942V39.3434H144.108V16.6504H149.138L151.799 32.7622Z" fill="#27374D"/>
<path d="M165.314 31.8229L160.741 16.6504H164.52L167.282 26.995L170.045 16.6504H173.5L168.927 31.8229V39.3434H165.307V31.8229H165.314Z" fill="#27374D"/>
<path d="M41.4192 6.4059L15.9519 0.0438332C15.8312 0.0125238 15.7105 0 15.5899 0C15.0627 0 14.561 0.288047 14.307 0.763949C13.8624 1.59678 14.3324 2.62373 15.266 2.83663L37.7039 7.97764C38.5295 8.16549 38.7137 9.2488 37.9897 9.69339L37.0624 10.257C35.3159 11.3277 33.2011 11.6471 31.2069 11.1524L7.93697 5.37896C6.90811 5.12222 5.91101 5.89243 5.91101 6.94443V42.5495C5.91101 43.4074 6.33018 44.1964 6.99068 44.691L3.65007 48.4231L0.5 51.911L3.56116 52.6937L8.58477 54.0776L15.5518 55.9937L27.9298 50.2203C29.6953 50.6336 31.2259 50.9842 32.3564 51.2159C33.9886 51.5415 35.4493 51.385 36.7258 50.9592C40.384 49.7444 42.7211 46.1939 42.7211 42.3929V8.05278C42.7211 7.27004 42.1877 6.5875 41.4192 6.39964V6.4059ZM15.6153 54.422H15.5835V54.4095L5.42834 51.8171L3.58656 51.3474L5.40929 50.4895L5.80305 50.5897L7.29552 50.9529L15.6153 53.0006L17.438 53.4451L17.7492 53.5266L15.6153 54.422ZM17.4698 52.0488L15.7232 51.6292L9.21351 50.0575L5.40294 49.137L7.1685 48.2791L7.20661 48.2603L11.1251 49.1683L16.7584 50.4708L19.2861 51.0594L19.591 51.1283L17.4698 52.0488ZM21.3248 48.5985L19.2798 49.5503L17.8635 49.2497L13.1384 48.2353L7.1431 46.9516L8.92772 46.0248H8.94677L15.1453 47.3022L18.9178 48.0787L20.5944 48.4169L20.6262 48.4294L21.1406 48.5358L21.3819 48.5859L21.3311 48.611L21.3248 48.5985ZM21.0834 46.9641L20.0673 46.7762L15.9519 46.0123L8.87691 44.691L10.6298 43.7142L11.1506 43.8081L15.9646 44.6597L21.1406 45.5802L22.8871 45.8933L22.8998 46.0687L21.0834 46.9704V46.9641ZM24.4113 43.6704L22.8236 44.4844L22.2139 44.3779L15.9836 43.3009L10.5853 42.3741L12.3255 41.3722L13.2908 41.5288L16.0027 41.9734L23.2999 43.1631L24.5511 43.3635L24.5638 43.5827V43.6891L24.4113 43.6578V43.6704ZM25.6688 40.5269L25.3576 40.8713L24.7797 41.5163L24.2653 42.0924L16.0217 40.6709L12.2556 40.0197L14.0021 39.0178V36.8574L14.0148 18.698L25.6815 21.4094L25.6688 40.5332V40.5269Z" fill="#27374D"/>
</g>
<defs>
<clipPath id="clip0_226_340">
<rect width="173" height="56" fill="white" transform="translate(0.5)"/>
</clipPath>
</defs>
</svg>
