<svg width="53" height="59" viewBox="0 0 53 59" fill="none" xmlns="http://www.w3.org/2000/svg">
<path d="M46.625 46.75H17.875C16.35 46.75 14.8875 46.1442 13.8091 45.0659C12.7308 43.9875 12.125 42.525 12.125 41V6.5C12.125 4.975 12.7308 3.51247 13.8091 2.43414C14.8875 1.3558 16.35 0.75 17.875 0.75H20.75V15.125L26.5 10.8125L32.25 15.125V0.75H46.625C48.15 0.75 49.6125 1.3558 50.6909 2.43414C51.7692 3.51247 52.375 4.975 52.375 6.5V41C52.375 42.525 51.7692 43.9875 50.6909 45.0659C49.6125 46.1442 48.15 46.75 46.625 46.75ZM40.875 52.5V58.25H6.375C4.85001 58.25 3.38747 57.6442 2.30914 56.5659C1.2308 55.4875 0.625 54.025 0.625 52.5V12.25H6.375V52.5H40.875Z" fill="#87ADEE"/>
</svg>
