<svg width="57" height="52" viewBox="0 0 57 52" fill="none" xmlns="http://www.w3.org/2000/svg">
<path d="M52.5667 52L32.6167 33.8C31.0333 34.9556 29.2125 35.8704 27.1542 36.5444C25.0958 37.2185 22.9056 37.5556 20.5833 37.5556C14.8306 37.5556 9.96233 35.7375 5.97867 32.1013C1.995 28.4652 0.00211111 24.024 0 18.7778C0 13.5296 1.99289 9.08844 5.97867 5.45422C9.96445 1.82 14.8327 0.00192593 20.5833 0C26.3361 0 31.2043 1.81807 35.188 5.45422C39.1717 9.09037 41.1646 13.5316 41.1667 18.7778C41.1667 20.8963 40.7972 22.8944 40.0583 24.7722C39.3194 26.65 38.3167 28.3111 37.05 29.7556L57 47.9556L52.5667 52ZM20.5833 31.7778C24.5417 31.7778 27.9068 30.5134 30.6787 27.9847C33.4506 25.4559 34.8354 22.387 34.8333 18.7778C34.8333 15.1667 33.4474 12.0967 30.6755 9.568C27.9036 7.03926 24.5396 5.77585 20.5833 5.77778C16.625 5.77778 13.2599 7.04215 10.488 9.57089C7.71611 12.0996 6.33122 15.1686 6.33333 18.7778C6.33333 22.3889 7.71928 25.4588 10.4912 27.9876C13.2631 30.5163 16.6271 31.7797 20.5833 31.7778Z" fill="#7D97D9"/>
</svg>
