<svg width="71" height="71" viewBox="0 0 71 71" fill="none" xmlns="http://www.w3.org/2000/svg">
<path d="M14.75 42.4167H42.4166V35.5H14.75V42.4167ZM14.75 32.0417H56.25V25.125H14.75V32.0417ZM14.75 21.6667H56.25V14.75H14.75V21.6667ZM0.916626 70.0833V7.83333C0.916626 5.93125 1.59446 4.30237 2.95013 2.9467C4.30579 1.59104 5.93352 0.914357 7.83329 0.916662H63.1666C65.0687 0.916662 66.6976 1.5945 68.0533 2.95016C69.4089 4.30583 70.0856 5.93355 70.0833 7.83333V49.3333C70.0833 51.2354 69.4055 52.8643 68.0498 54.22C66.6941 55.5756 65.0664 56.2523 63.1666 56.25H14.75L0.916626 70.0833Z" fill="#86ACEC"/>
</svg>
